STARTFONT 2.1
COMMENT
COMMENT Converted from OpenType font "Q:\font stuff\winfont\Maetl Light.ttf" by "otf2bdf 3.0".
COMMENT
FONT -FreeType-Maetl-Medium-R-Normal--32-320-72-72-P-193-ISO10646-1
SIZE 32 72 72
FONTBOUNDINGBOX 42 44 -4 -9
STARTPROPERTIES 19
FOUNDRY "FreeType"
FAMILY_NAME "Maetl"
WEIGHT_NAME "Medium"
SLANT "R"
SETWIDTH_NAME "Normal"
ADD_STYLE_NAME ""
PIXEL_SIZE 32
POINT_SIZE 320
RESOLUTION_X 72
RESOLUTION_Y 72
SPACING "P"
AVERAGE_WIDTH 193
CHARSET_REGISTRY "ISO10646"
CHARSET_ENCODING "1"
FONT_ASCENT 34
FONT_DESCENT 8
COPYRIGHT "Copyright 2002 YouWorkForThem.  All Rights Reserved. http://www.youworkforthem.com.  YWFT Administration Contact: info@youworkforthem.com"
_OTF_FONTFILE "Q:\font stuff\winfont\Maetl Light.ttf"
_OTF_PSNAME "MaetlLight"
ENDPROPERTIES
CHARS 246
STARTCHAR 0020
ENCODING 32
SWIDTH 312 0
DWIDTH 10 0
BBX 0 0 0 0
BITMAP
ENDCHAR
STARTCHAR 0021
ENCODING 33
SWIDTH 250 0
DWIDTH 8 0
BBX 3 23 2 0
BITMAP
E0
E0
E0
E0
E0
E0
E0
E0
E0
E0
E0
E0
E0
E0
E0
E0
00
00
00
00
E0
E0
E0
ENDCHAR
STARTCHAR 0022
ENCODING 34
SWIDTH 437 0
DWIDTH 14 0
BBX 9 5 2 18
BITMAP
E380
E380
E380
E380
6180
ENDCHAR
STARTCHAR 0023
ENCODING 35
SWIDTH 718 0
DWIDTH 23 0
BBX 19 18 2 3
BITMAP
0E1C00
0E1C00
0E1C00
0E1C00
FFFFE0
FFFFE0
FFFFE0
0E1C00
0E1C00
0E1C00
0E1C00
0E1C00
FFFFE0
FFFFE0
FFFFE0
0E1C00
0E1C00
0E1C00
ENDCHAR
STARTCHAR 0024
ENCODING 36
SWIDTH 875 0
DWIDTH 28 0
BBX 23 29 2 -3
BITMAP
003800
003800
003800
003800
1FFFF0
3FFFF8
7FFFFC
E0000E
E0000E
E0000E
E00000
E00000
600000
7FFFF0
3FFFF8
1FFFFC
00000E
00000E
00000E
E0000E
E0000E
60000E
3FFFFC
1FFFF8
1FFFF0
003800
003800
003800
003800
ENDCHAR
STARTCHAR 0025
ENCODING 37
SWIDTH 875 0
DWIDTH 28 0
BBX 23 23 2 0
BITMAP
1F001C
3F801C
79C01C
F0E03C
E06078
C060F0
E061E0
70E3C0
31C780
1F8F00
0F1E00
003C00
0078F0
01F1F8
03E39C
07C70E
0F8E06
1F0C02
3E0C06
7C0E06
78038C
7001F8
7000F0
ENDCHAR
STARTCHAR 0026
ENCODING 38
SWIDTH 906 0
DWIDTH 29 0
BBX 25 23 2 0
BITMAP
1FFF8000
3FFF8000
7FFF8000
E0000000
E0000000
E0000000
E0003800
E0003800
60003800
20003800
1FFFFF80
0FFFFF80
1FFFFF80
20003800
60003800
E0003800
E0003800
E0003800
E0003800
E0003800
7FFFF000
3FFFE000
1FFFC000
ENDCHAR
STARTCHAR 0027
ENCODING 39
SWIDTH 250 0
DWIDTH 8 0
BBX 3 5 2 18
BITMAP
E0
E0
E0
E0
60
ENDCHAR
STARTCHAR 0028
ENCODING 40
SWIDTH 375 0
DWIDTH 12 0
BBX 7 31 2 -4
BITMAP
1E
3E
7E
E0
E0
E0
E0
E0
E0
E0
E0
E0
E0
E0
E0
E0
E0
E0
E0
E0
E0
E0
E0
E0
E0
E0
E0
60
3E
3E
1E
ENDCHAR
STARTCHAR 0029
ENCODING 41
SWIDTH 375 0
DWIDTH 12 0
BBX 7 31 2 -4
BITMAP
F0
F8
FC
0E
0E
0E
0E
0E
0E
0E
0E
0E
0E
0E
0E
0E
0E
0E
0E
0E
0E
0E
0E
0E
0E
0E
0E
0E
FC
F8
F0
ENDCHAR
STARTCHAR 002A
ENCODING 42
SWIDTH 718 0
DWIDTH 23 0
BBX 19 16 2 7
BITMAP
006000
E0E0E0
F0E1E0
78E3C0
3CE780
1EEF00
0FFE00
07FC00
0FFE00
1EEF00
3CE780
78E3C0
F0E1E0
E0E0E0
00E000
006000
ENDCHAR
STARTCHAR 002B
ENCODING 43
SWIDTH 562 0
DWIDTH 18 0
BBX 13 13 2 5
BITMAP
0700
0700
0700
0700
0700
FFF8
FFF8
FFF8
0700
0700
0700
0700
0700
ENDCHAR
STARTCHAR 002C
ENCODING 44
SWIDTH 250 0
DWIDTH 8 0
BBX 3 6 2 -3
BITMAP
E0
E0
60
60
60
20
ENDCHAR
STARTCHAR 002D
ENCODING 45
SWIDTH 468 0
DWIDTH 15 0
BBX 11 3 2 10
BITMAP
FFE0
FFE0
FFE0
ENDCHAR
STARTCHAR 002E
ENCODING 46
SWIDTH 250 0
DWIDTH 8 0
BBX 3 3 2 0
BITMAP
E0
E0
E0
ENDCHAR
STARTCHAR 002F
ENCODING 47
SWIDTH 781 0
DWIDTH 25 0
BBX 21 23 2 0
BITMAP
000038
000038
000038
000078
0000F0
0001E0
0003C0
000780
000F00
001E00
003C00
007800
00F000
03E000
07C000
0F8000
1F0000
3E0000
7C0000
F80000
F00000
E00000
E00000
ENDCHAR
STARTCHAR 0030
ENCODING 48
SWIDTH 843 0
DWIDTH 27 0
BBX 22 23 2 0
BITMAP
1FFFE0
3FFFF0
7FFFF8
E0001C
E0001C
E0001C
E0001C
E0001C
E0001C
E0001C
E0001C
E0001C
E0001C
E0001C
E0001C
E0001C
E0001C
E0001C
E0001C
E0001C
7FFFF8
3FFFF0
1FFFE0
ENDCHAR
STARTCHAR 0031
ENCODING 49
SWIDTH 468 0
DWIDTH 15 0
BBX 11 23 2 0
BITMAP
FE00
FE00
FE00
0E00
0E00
0E00
0E00
0E00
0E00
0E00
0E00
0E00
0E00
0E00
0E00
0E00
0E00
0E00
0E00
0E00
FFE0
FFE0
FFE0
ENDCHAR
STARTCHAR 0032
ENCODING 50
SWIDTH 843 0
DWIDTH 27 0
BBX 22 23 2 0
BITMAP
FFFFE0
FFFFF0
FFFFF8
00001C
00001C
00001C
00001C
00001C
00001C
00001C
1FFFF8
3FFFF0
7FFFE0
E00000
E00000
E00000
E00000
E00000
E00000
E00000
FFFFFC
FFFFFC
FFFFFC
ENDCHAR
STARTCHAR 0033
ENCODING 51
SWIDTH 781 0
DWIDTH 25 0
BBX 21 23 2 0
BITMAP
FFFFC0
FFFFE0
FFFFF0
000038
000038
000038
000038
000038
000038
000038
FFFFF0
FFFFE0
FFFFF0
000038
000038
000038
000038
000038
000038
000038
FFFFF0
FFFFE0
FFFFC0
ENDCHAR
STARTCHAR 0034
ENCODING 52
SWIDTH 875 0
DWIDTH 28 0
BBX 24 23 2 0
BITMAP
003CE0
0078E0
00F0E0
01E0E0
03C0E0
0780E0
0F00E0
1E00E0
3C00E0
7800E0
F000E0
E000E0
E000E0
E000E0
FFFFFF
FFFFFF
FFFFFF
0000E0
0000E0
0000E0
0000E0
0000E0
0000E0
ENDCHAR
STARTCHAR 0035
ENCODING 53
SWIDTH 781 0
DWIDTH 25 0
BBX 21 23 2 0
BITMAP
FFFFF8
FFFFF8
FFFFF8
E00000
E00000
E00000
E00000
E00000
E00000
FFFFC0
FFFFE0
FFFFF0
000038
000038
000038
000038
000038
000038
000038
000038
FFFFF0
FFFFE0
FFFFC0
ENDCHAR
STARTCHAR 0036
ENCODING 54
SWIDTH 843 0
DWIDTH 27 0
BBX 22 23 2 0
BITMAP
1FFFE0
3FFFE0
7FFFE0
E00000
E00000
E00000
E00000
E00000
E00000
E3FFE0
E7FFF0
EFFFF8
F0001C
E0001C
E0001C
E0001C
E0001C
E0001C
E0001C
E0001C
7FFFF8
3FFFF0
1FFFE0
ENDCHAR
STARTCHAR 0037
ENCODING 55
SWIDTH 750 0
DWIDTH 24 0
BBX 20 23 2 0
BITMAP
FFFFF0
FFFFF0
FFFFF0
0001F0
0003E0
0007C0
000F80
001F00
003E00
007C00
00F000
01E000
03C000
038000
038000
038000
038000
038000
038000
038000
038000
038000
038000
ENDCHAR
STARTCHAR 0038
ENCODING 56
SWIDTH 843 0
DWIDTH 27 0
BBX 22 23 2 0
BITMAP
1FFFE0
3FFFF0
7FFFF8
E0001C
E0001C
E0001C
E0001C
E0001C
E0001C
E0001C
7FFFF8
3FFFF0
7FFFF8
E0001C
E0001C
E0001C
E0001C
E0001C
E0001C
E0001C
7FFFF8
3FFFF0
1FFFE0
ENDCHAR
STARTCHAR 0039
ENCODING 57
SWIDTH 843 0
DWIDTH 27 0
BBX 22 23 2 0
BITMAP
1FFFE0
3FFFF0
7FFFF8
E0001C
E0001C
E0001C
E0001C
E0001C
E0001C
E0001C
E0001C
7FFFFC
3FFFDC
1FFF9C
00001C
00001C
00001C
00001C
00001C
00001C
0FFFF8
0FFFF0
0FFFE0
ENDCHAR
STARTCHAR 003A
ENCODING 58
SWIDTH 250 0
DWIDTH 8 0
BBX 3 13 2 0
BITMAP
E0
E0
E0
00
00
00
00
00
00
00
E0
E0
E0
ENDCHAR
STARTCHAR 003B
ENCODING 59
SWIDTH 250 0
DWIDTH 8 0
BBX 3 16 2 -3
BITMAP
E0
E0
E0
00
00
00
00
00
00
00
E0
E0
60
60
60
20
ENDCHAR
STARTCHAR 003C
ENCODING 60
SWIDTH 437 0
DWIDTH 14 0
BBX 10 15 2 4
BITMAP
01C0
03C0
0780
0F00
1E00
3C00
7800
F000
7800
3C00
1E00
0F00
0780
03C0
01C0
ENDCHAR
STARTCHAR 003D
ENCODING 61
SWIDTH 593 0
DWIDTH 19 0
BBX 15 11 2 6
BITMAP
FFFE
FFFE
FFFE
0000
0000
0000
0000
0000
FFFE
FFFE
FFFE
ENDCHAR
STARTCHAR 003E
ENCODING 62
SWIDTH 437 0
DWIDTH 14 0
BBX 10 15 2 4
BITMAP
E000
F000
7800
3C00
1E00
0F00
0780
03C0
0780
0F00
1E00
3C00
7800
F000
E000
ENDCHAR
STARTCHAR 003F
ENCODING 63
SWIDTH 687 0
DWIDTH 22 0
BBX 17 23 2 0
BITMAP
FFFC00
FFFE00
FFFF00
000380
000380
000380
000380
000380
000380
000380
01FF00
03FE00
07FC00
0E0000
0E0000
0E0000
000000
000000
000000
000000
0E0000
0E0000
0E0000
ENDCHAR
STARTCHAR 0040
ENCODING 64
SWIDTH 750 0
DWIDTH 24 0
BBX 19 23 2 0
BITMAP
03FF00
07FF80
0FFFC0
1E00E0
3C00E0
7800E0
F07CE0
E07EE0
E0FFE0
E180E0
E380E0
E380E0
E380E0
E180C0
E0FF80
E07F00
F07E00
780000
3C0000
1E0000
0FFE00
07FE00
03FE00
ENDCHAR
STARTCHAR 0041
ENCODING 65
SWIDTH 906 0
DWIDTH 29 0
BBX 24 23 2 0
BITMAP
001C00
003E00
007F00
00F780
01E3C0
03C1E0
0780F0
0F0078
1E003C
3C001E
78000F
F00007
E00007
E00007
FFFFFF
FFFFFF
FFFFFF
E00007
E00007
E00007
E00007
E00007
E00007
ENDCHAR
STARTCHAR 0042
ENCODING 66
SWIDTH 906 0
DWIDTH 29 0
BBX 24 23 2 0
BITMAP
FFFFF8
FFFFFC
FFFFFE
E00007
E00007
E00007
E00007
E00007
E0000F
E0001E
FFFFFC
FFFFFC
FFFFFC
E0001E
E0000F
E00007
E00007
E00007
E00007
E00007
FFFFFE
FFFFFC
FFFFF8
ENDCHAR
STARTCHAR 0043
ENCODING 67
SWIDTH 906 0
DWIDTH 29 0
BBX 24 23 2 0
BITMAP
1FFFF8
3FFFFC
7FFFFE
E00007
E00007
E00007
E00007
E00000
E00000
E00000
E00000
E00000
E00000
E00000
E00000
E00000
E00007
E00007
E00007
E00007
7FFFFE
3FFFFC
1FFFF8
ENDCHAR
STARTCHAR 0044
ENCODING 68
SWIDTH 906 0
DWIDTH 29 0
BBX 24 23 2 0
BITMAP
FFFFF8
FFFFFC
FFFFFE
E00007
E00007
E00007
E00007
E00007
E00007
E00007
E00007
E00007
E00007
E00007
E00007
E00007
E00007
E00007
E00007
E00007
FFFFFE
FFFFFC
FFFFF8
ENDCHAR
STARTCHAR 0045
ENCODING 69
SWIDTH 843 0
DWIDTH 27 0
BBX 22 23 2 0
BITMAP
FFFFFC
FFFFFC
FFFFFC
E00000
E00000
E00000
E00000
E00000
E00000
E00000
FFFFFC
FFFFFC
FFFFFC
E00000
E00000
E00000
E00000
E00000
E00000
E00000
FFFFFC
FFFFFC
FFFFFC
ENDCHAR
STARTCHAR 0046
ENCODING 70
SWIDTH 750 0
DWIDTH 24 0
BBX 20 23 2 0
BITMAP
FFFFF0
FFFFF0
FFFFF0
E00000
E00000
E00000
E00000
E00000
E00000
E00000
FFFFF0
FFFFF0
FFFFF0
E00000
E00000
E00000
E00000
E00000
E00000
E00000
E00000
E00000
E00000
ENDCHAR
STARTCHAR 0047
ENCODING 71
SWIDTH 906 0
DWIDTH 29 0
BBX 24 23 2 0
BITMAP
1FFFF8
3FFFFC
7FFFFE
E00007
E00007
E00007
E00007
E00000
E00000
E00000
E00000
E003FF
E003FF
E003FF
E00007
E00007
E00007
E00007
E00007
E00007
7FFFFE
3FFFFC
1FFFF8
ENDCHAR
STARTCHAR 0048
ENCODING 72
SWIDTH 906 0
DWIDTH 29 0
BBX 24 23 2 0
BITMAP
E00007
E00007
E00007
E00007
E00007
E00007
E00007
E00007
E00007
E00007
FFFFFF
FFFFFF
FFFFFF
E00007
E00007
E00007
E00007
E00007
E00007
E00007
E00007
E00007
E00007
ENDCHAR
STARTCHAR 0049
ENCODING 73
SWIDTH 562 0
DWIDTH 18 0
BBX 13 23 2 0
BITMAP
FFF8
FFF8
FFF8
0700
0700
0700
0700
0700
0700
0700
0700
0700
0700
0700
0700
0700
0700
0700
0700
0700
FFF8
FFF8
FFF8
ENDCHAR
STARTCHAR 004A
ENCODING 74
SWIDTH 875 0
DWIDTH 28 0
BBX 23 23 2 0
BITMAP
0003FE
0003FE
0003FE
00000E
00000E
00000E
00000E
00000E
00000E
00000E
00000E
00000E
00000E
00000E
00000E
00000E
E0000E
E0000E
E0000E
E0000E
7FFFFC
3FFFF8
1FFFF0
ENDCHAR
STARTCHAR 004B
ENCODING 75
SWIDTH 875 0
DWIDTH 28 0
BBX 24 23 2 0
BITMAP
E0000F
E0001E
E0003C
E00078
E000F0
E001E0
E003C0
E00780
E00F00
E01E00
FFFC00
FFF800
FFFC00
E01E00
E00F00
E00780
E003C0
E001E0
E000F0
E00078
E0003C
E0001E
E0000F
ENDCHAR
STARTCHAR 004C
ENCODING 76
SWIDTH 750 0
DWIDTH 24 0
BBX 20 23 2 0
BITMAP
E00000
E00000
E00000
E00000
E00000
E00000
E00000
E00000
E00000
E00000
E00000
E00000
E00000
E00000
E00000
E00000
E00000
E00000
E00000
E00000
FFFFF0
FFFFF0
FFFFF0
ENDCHAR
STARTCHAR 004D
ENCODING 77
SWIDTH 937 0
DWIDTH 30 0
BBX 26 23 2 0
BITMAP
F00003C0
F80007C0
FC000FC0
FE001FC0
EF003FC0
E7807DC0
E3C0F9C0
E1E1F1C0
E0F3C1C0
E07F81C0
E03F01C0
E01E01C0
E00C01C0
E00001C0
E00001C0
E00001C0
E00001C0
E00001C0
E00001C0
E00001C0
E00001C0
E00001C0
E00001C0
ENDCHAR
STARTCHAR 004E
ENCODING 78
SWIDTH 937 0
DWIDTH 30 0
BBX 26 23 2 0
BITMAP
F00001C0
F80001C0
FC0001C0
FE0001C0
EF0001C0
E78001C0
E3C001C0
E1E001C0
E0F001C0
E07801C0
E03E01C0
E01F01C0
E00F81C0
E007C1C0
E003E1C0
E001F1C0
E000F9C0
E0007DC0
E0003FC0
E0001FC0
E00007C0
E00003C0
E00001C0
ENDCHAR
STARTCHAR 004F
ENCODING 79
SWIDTH 906 0
DWIDTH 29 0
BBX 24 23 2 0
BITMAP
1FFFF8
3FFFFC
7FFFFE
E00007
E00007
E00007
E00007
E00007
E00007
E00007
E00007
E00007
E00007
E00007
E00007
E00007
E00007
E00007
E00007
E00007
7FFFFE
3FFFFC
1FFFF8
ENDCHAR
STARTCHAR 0050
ENCODING 80
SWIDTH 843 0
DWIDTH 27 0
BBX 22 23 2 0
BITMAP
FFFFE0
FFFFF0
FFFFF8
E0001C
E0001C
E0001C
E0001C
E0001C
E0001C
E0001C
E0001C
E0001C
E0001C
E0001C
FFFFF8
FFFFF0
FFFFE0
E00000
E00000
E00000
E00000
E00000
E00000
ENDCHAR
STARTCHAR 0051
ENCODING 81
SWIDTH 1000 0
DWIDTH 32 0
BBX 27 27 2 -4
BITMAP
1FFFF800
3FFFFC00
7FFFFE00
E0000700
E0000700
E0000700
E0000700
E0000700
E0000700
E0000700
E0000700
E0000700
E0000700
E0000700
E0000700
E0000700
E0000700
E0000700
E0000600
E0000400
7FFFFC00
3FFFFE00
1FFFFF00
00000780
000003C0
000001E0
000001E0
ENDCHAR
STARTCHAR 0052
ENCODING 82
SWIDTH 906 0
DWIDTH 29 0
BBX 25 23 2 0
BITMAP
FFFFF800
FFFFFC00
FFFFFE00
E0000700
E0000700
E0000700
E0000700
E0000700
E0000700
E0000700
FFFFFE00
FFFFFE00
FFFFFC00
E00F0000
E0078000
E003C000
E001E000
E000F000
E0007800
E0003C00
E0001E00
E0000F00
E0000780
ENDCHAR
STARTCHAR 0053
ENCODING 83
SWIDTH 906 0
DWIDTH 29 0
BBX 24 23 2 0
BITMAP
1FFFF8
3FFFFC
7FFFFE
E00007
E00007
E00007
E00007
E00000
E00000
E00000
7FFFF8
3FFFFC
1FFFFE
000007
000007
000007
E00007
E00007
E00007
E00007
7FFFFE
3FFFFC
1FFFF8
ENDCHAR
STARTCHAR 0054
ENCODING 84
SWIDTH 875 0
DWIDTH 28 0
BBX 24 23 2 0
BITMAP
FFFFFF
FFFFFF
FFFFFF
003800
003800
003800
003800
003800
003800
003800
003800
003800
003800
003800
003800
003800
003800
003800
003800
003800
003800
003800
003800
ENDCHAR
STARTCHAR 0055
ENCODING 85
SWIDTH 906 0
DWIDTH 29 0
BBX 24 23 2 0
BITMAP
E00007
E00007
E00007
E00007
E00007
E00007
E00007
E00007
E00007
E00007
E00007
E00007
E00007
E00007
E00007
E00007
E00007
E00007
E00007
E00007
7FFFFE
3FFFFC
1FFFF8
ENDCHAR
STARTCHAR 0056
ENCODING 86
SWIDTH 875 0
DWIDTH 28 0
BBX 23 23 2 0
BITMAP
E0000E
E0000E
E0000E
E0000E
E0000E
E0000E
E0000E
E0000E
E0000E
E0000E
E0000E
F0000E
78001E
3C003C
1E0078
0F00F0
0781E0
03C3C0
01E780
00FF00
007E00
003C00
001800
ENDCHAR
STARTCHAR 0057
ENCODING 87
SWIDTH 937 0
DWIDTH 30 0
BBX 26 23 2 0
BITMAP
E00001C0
E00001C0
E00001C0
E00001C0
E00001C0
E00001C0
E00001C0
E00001C0
E00001C0
E00001C0
E00C01C0
E01E01C0
E03F01C0
E07F81C0
E0F3C1C0
E1E1E1C0
E3C0F1C0
E78079C0
EF003DC0
FE001FC0
FC000FC0
780007C0
30000300
ENDCHAR
STARTCHAR 0058
ENCODING 88
SWIDTH 843 0
DWIDTH 27 0
BBX 22 23 2 0
BITMAP
E0001C
E0001C
F0001C
78003C
3C0078
1E00F0
0F01E0
0783C0
03C780
01EF00
00FE00
007C00
00FE00
01EF00
03C780
0783C0
0F01E0
1E00F0
3C0078
78003C
F0001C
E0001C
E0001C
ENDCHAR
STARTCHAR 0059
ENCODING 89
SWIDTH 875 0
DWIDTH 28 0
BBX 23 23 2 0
BITMAP
E0000E
E0000E
F0000E
78001E
3C003C
1E0078
0F00F0
0781E0
03C3C0
01E780
00FF00
007E00
003C00
003800
003800
003800
003800
003800
003800
003800
003800
003800
003800
ENDCHAR
STARTCHAR 005A
ENCODING 90
SWIDTH 781 0
DWIDTH 25 0
BBX 21 23 2 0
BITMAP
FFFFF8
FFFFF8
FFFFF8
0000F8
0001F0
0003E0
0007C0
000F80
001F00
003E00
007C00
00F800
01F000
03E000
07C000
078000
0F0000
1E0000
3C0000
780000
FFFFF8
FFFFF8
FFFFF8
ENDCHAR
STARTCHAR 005B
ENCODING 91
SWIDTH 375 0
DWIDTH 12 0
BBX 7 31 2 -4
BITMAP
FE
FE
FE
E0
E0
E0
E0
E0
E0
E0
E0
E0
E0
E0
E0
E0
E0
E0
E0
E0
E0
E0
E0
E0
E0
E0
E0
E0
FE
FE
FE
ENDCHAR
STARTCHAR 005C
ENCODING 92
SWIDTH 781 0
DWIDTH 25 0
BBX 21 23 2 0
BITMAP
E00000
E00000
F00000
780000
3C0000
1E0000
0F0000
078000
03C000
01E000
00F000
007800
003C00
001E00
000F00
000780
0003C0
0001E0
0000F0
000078
000038
000038
000038
ENDCHAR
STARTCHAR 005D
ENCODING 93
SWIDTH 375 0
DWIDTH 12 0
BBX 7 31 2 -4
BITMAP
FE
FE
FE
0E
0E
0E
0E
0E
0E
0E
0E
0E
0E
0E
0E
0E
0E
0E
0E
0E
0E
0E
0E
0E
0E
0E
0E
0E
FE
FE
FE
ENDCHAR
STARTCHAR 005E
ENCODING 94
SWIDTH 468 0
DWIDTH 15 0
BBX 11 8 2 14
BITMAP
0600
0F00
1F80
3FC0
79E0
F0E0
E060
C020
ENDCHAR
STARTCHAR 005F
ENCODING 95
SWIDTH 906 0
DWIDTH 29 0
BBX 25 3 2 -4
BITMAP
FFFFFF80
FFFFFF80
FFFFFF80
ENDCHAR
STARTCHAR 0060
ENCODING 96
SWIDTH 843 0
DWIDTH 27 0
BBX 9 7 4 20
BITMAP
F000
7800
3C00
1E00
0F00
0780
0380
ENDCHAR
STARTCHAR 0061
ENCODING 97
SWIDTH 906 0
DWIDTH 29 0
BBX 24 18 2 0
BITMAP
1FFFE1
3FFFF3
7FFFFF
E00007
E00007
E00007
E00007
E00007
E00007
E00007
E00007
E00007
E00007
E00007
E00007
7FFFFF
3FFFF3
1FFFE1
ENDCHAR
STARTCHAR 0062
ENCODING 98
SWIDTH 906 0
DWIDTH 29 0
BBX 24 26 2 0
BITMAP
E00000
E00000
E00000
E00000
E00000
E00000
E00000
E00000
E3FFF8
E7FFFC
EFFFFE
F00007
E00007
E00007
E00007
E00007
E00007
E00007
E00007
E00007
E00007
E00007
600007
7FFFFE
3FFFFC
1FFFF8
ENDCHAR
STARTCHAR 0063
ENCODING 99
SWIDTH 843 0
DWIDTH 27 0
BBX 22 18 2 0
BITMAP
1FFFFC
3FFFFC
7FFFFC
E00000
E00000
E00000
E00000
E00000
E00000
E00000
E00000
E00000
E00000
E00000
E00000
7FFFFC
3FFFFC
1FFFFC
ENDCHAR
STARTCHAR 0064
ENCODING 100
SWIDTH 906 0
DWIDTH 29 0
BBX 24 26 2 0
BITMAP
000007
000007
000007
000007
000007
000007
000007
000007
1FFFE7
3FFFF7
7FFFFF
E00007
E00007
E00007
E00007
E00007
E00007
E00007
E00007
E00007
E00007
E00007
E00007
7FFFFF
3FFFF3
1FFFE1
ENDCHAR
STARTCHAR 0065
ENCODING 101
SWIDTH 875 0
DWIDTH 28 0
BBX 23 18 2 0
BITMAP
1FFFF0
3FFFF8
7FFFFC
E0000E
E0000E
E0000E
E0000E
E0000E
FFFFFE
FFFFFE
FFFFFE
E00000
E00000
E00000
E00000
7FFFFE
3FFFFE
1FFFFE
ENDCHAR
STARTCHAR 0066
ENCODING 102
SWIDTH 687 0
DWIDTH 22 0
BBX 17 26 2 0
BITMAP
01FF80
03FF80
03FF80
060000
0E0000
0E0000
0E0000
0E0000
FFFF80
FFFF80
FFFF80
0E0000
0E0000
0E0000
0E0000
0E0000
0E0000
0E0000
0E0000
0E0000
0E0000
0E0000
0E0000
0E0000
0E0000
0E0000
ENDCHAR
STARTCHAR 0067
ENCODING 103
SWIDTH 906 0
DWIDTH 29 0
BBX 24 25 2 -7
BITMAP
1FFFE1
3FFFF3
7FFFFF
E00007
E00007
E00007
E00007
E00007
E00007
E00007
E00007
E00007
E00007
E00007
E00007
7FFFFF
3FFFF7
1FFFE7
000007
000007
000007
000007
0FFFFE
0FFFFC
0FFFF8
ENDCHAR
STARTCHAR 0068
ENCODING 104
SWIDTH 875 0
DWIDTH 28 0
BBX 23 26 2 0
BITMAP
E00000
E00000
E00000
E00000
E00000
E00000
E00000
E00000
E3FFF0
E7FFF8
EFFFFC
F0000E
E0000E
E0000E
E0000E
E0000E
E0000E
E0000E
E0000E
E0000E
E0000E
E0000E
E0000E
E0000E
E0000E
E0000E
ENDCHAR
STARTCHAR 0069
ENCODING 105
SWIDTH 375 0
DWIDTH 12 0
BBX 7 26 2 0
BITMAP
E0
E0
E0
00
00
00
00
00
E0
E0
E0
E0
E0
E0
E0
E0
E0
E0
E0
E0
E0
E0
E0
7E
3E
1E
ENDCHAR
STARTCHAR 006A
ENCODING 106
SWIDTH 281 0
DWIDTH 9 0
BBX 11 33 -4 -7
BITMAP
00E0
00E0
00E0
0000
0000
0000
0000
0000
00E0
00E0
00E0
00E0
00E0
00E0
00E0
00E0
00E0
00E0
00E0
00E0
00E0
00E0
00E0
00E0
00E0
00E0
00E0
00E0
00E0
00E0
FFC0
FF80
FF00
ENDCHAR
STARTCHAR 006B
ENCODING 107
SWIDTH 843 0
DWIDTH 27 0
BBX 22 26 2 0
BITMAP
E00000
E00000
E00000
E00000
E00000
E00000
E00000
E00000
E0003C
E00078
E000F0
E001E0
E003C0
E00780
E00F00
E01E00
FFFC00
FFFC00
FFFE00
E00F00
E00780
E003E0
E001F0
E000F8
E0007C
E0003C
ENDCHAR
STARTCHAR 006C
ENCODING 108
SWIDTH 375 0
DWIDTH 12 0
BBX 7 26 2 0
BITMAP
E0
E0
E0
E0
E0
E0
E0
E0
E0
E0
E0
E0
E0
E0
E0
E0
E0
E0
E0
E0
E0
E0
60
3E
3E
1E
ENDCHAR
STARTCHAR 006D
ENCODING 109
SWIDTH 1187 0
DWIDTH 38 0
BBX 33 18 2 0
BITMAP
C3FE0FFC00
E7FF1FFE00
FFFFBFFF00
E001C00380
E001C00380
E001C00380
E001C00380
E001C00380
E001C00380
E001C00380
E001C00380
E001C00380
E001C00380
E001C00380
E001C00380
E001C00380
E001C00380
E001C00380
ENDCHAR
STARTCHAR 006E
ENCODING 110
SWIDTH 875 0
DWIDTH 28 0
BBX 23 18 2 0
BITMAP
C3FFF0
E7FFF8
FFFFFC
E0000E
E0000E
E0000E
E0000E
E0000E
E0000E
E0000E
E0000E
E0000E
E0000E
E0000E
E0000E
E0000E
E0000E
E0000E
ENDCHAR
STARTCHAR 006F
ENCODING 111
SWIDTH 906 0
DWIDTH 29 0
BBX 24 18 2 0
BITMAP
1FFFF8
3FFFFC
7FFFFE
E00007
E00007
E00007
E00007
E00007
E00007
E00007
E00007
E00007
E00007
E00007
E00007
7FFFFE
3FFFFC
1FFFF8
ENDCHAR
STARTCHAR 0070
ENCODING 112
SWIDTH 906 0
DWIDTH 29 0
BBX 24 25 2 -7
BITMAP
C3FFF8
E7FFFC
FFFFFE
E00007
E00007
E00007
E00007
E00007
E00007
E00007
E00007
E00007
E00007
E00007
E00007
FFFFFE
E7FFFC
E3FFF8
E00000
E00000
E00000
E00000
E00000
E00000
E00000
ENDCHAR
STARTCHAR 0071
ENCODING 113
SWIDTH 906 0
DWIDTH 29 0
BBX 24 25 2 -7
BITMAP
1FFFF8
3FFFFC
7FFFFE
E00007
E00007
E00007
E00007
E00007
E00007
E00007
E00007
E00007
E00007
E00007
E00007
7FFFFF
3FFFF7
1FFFE7
000007
000007
000007
000007
000007
000007
000007
ENDCHAR
STARTCHAR 0072
ENCODING 114
SWIDTH 625 0
DWIDTH 20 0
BBX 16 18 2 0
BITMAP
C3FF
E7FF
FFFF
E000
E000
E000
E000
E000
E000
E000
E000
E000
E000
E000
E000
E000
E000
E000
ENDCHAR
STARTCHAR 0073
ENCODING 115
SWIDTH 843 0
DWIDTH 27 0
BBX 22 18 2 0
BITMAP
1FFFFC
1FFFFC
3FFFFC
600000
E00000
E00000
E00000
600000
3FFFE0
1FFFF0
0FFFF8
00001C
00001C
00001C
00001C
FFFFFC
FFFFF0
FFFFE0
ENDCHAR
STARTCHAR 0074
ENCODING 116
SWIDTH 750 0
DWIDTH 24 0
BBX 20 23 2 0
BITMAP
0E0000
0E0000
0E0000
0E0000
0E0000
FFFFF0
FFFFF0
FFFFF0
0E0000
0E0000
0E0000
0E0000
0E0000
0E0000
0E0000
0E0000
0E0000
0E0000
0E0000
0E0000
07FFF0
03FFF0
01FFF0
ENDCHAR
STARTCHAR 0075
ENCODING 117
SWIDTH 875 0
DWIDTH 28 0
BBX 23 18 2 0
BITMAP
E0000E
E0000E
E0000E
E0000E
E0000E
E0000E
E0000E
E0000E
E0000E
E0000E
E0000E
E0000E
E0000E
E0000E
E0000E
7FFFFE
3FFFE6
1FFFC2
ENDCHAR
STARTCHAR 0076
ENCODING 118
SWIDTH 875 0
DWIDTH 28 0
BBX 23 18 2 0
BITMAP
E0000E
E0000E
E0000E
E0000E
E0000E
E0000E
F0000E
78001E
3C003C
1E0078
0F00F0
0781E0
03C3C0
01E780
00FF00
007E00
003C00
001800
ENDCHAR
STARTCHAR 0077
ENCODING 119
SWIDTH 1187 0
DWIDTH 38 0
BBX 33 18 2 0
BITMAP
E001C00380
E001C00380
E001C00380
E001C00380
E001C00380
E001C00380
E001C00380
E001C00380
E001C00380
E001C00380
E001C00380
E001C00380
E001C00380
E001C00380
E001C00380
7FFFBFFF00
3FFF1FFE00
1FFE0FFC00
ENDCHAR
STARTCHAR 0078
ENCODING 120
SWIDTH 843 0
DWIDTH 27 0
BBX 22 18 2 0
BITMAP
F0003C
78007C
3C00F8
1E01F0
0F03E0
0787C0
03CF00
01FE00
00FC00
00FE00
01FF00
03CF80
0787C0
0F03E0
1E01F0
3C00F8
78007C
F0003C
ENDCHAR
STARTCHAR 0079
ENCODING 121
SWIDTH 875 0
DWIDTH 28 0
BBX 23 25 2 -7
BITMAP
E0000E
E0000E
E0000E
E0000E
E0000E
E0000E
E0000E
E0000E
E0000E
E0000E
E0000E
E0000E
E0000E
E0000E
E0000E
7FFFFE
3FFFEE
1FFFCE
00000E
00000E
00000E
00000E
0FFFFC
0FFFF8
0FFFF0
ENDCHAR
STARTCHAR 007A
ENCODING 122
SWIDTH 843 0
DWIDTH 27 0
BBX 22 18 2 0
BITMAP
FFFFFC
FFFFFC
FFFFFC
00001C
00001C
00001C
00001C
00001C
1FFFF8
3FFFF0
7FFFE0
E00000
E00000
E00000
E00000
FFFFFC
FFFFFC
FFFFFC
ENDCHAR
STARTCHAR 007B
ENCODING 123
SWIDTH 437 0
DWIDTH 14 0
BBX 10 31 2 -4
BITMAP
03C0
07C0
0FC0
3800
3800
3800
3800
3800
3800
3800
3800
3800
3800
3000
6000
E000
6000
3000
3800
3800
3800
3800
3800
3800
3800
3800
3800
1800
0FC0
07C0
03C0
ENDCHAR
STARTCHAR 007C
ENCODING 124
SWIDTH 250 0
DWIDTH 8 0
BBX 3 24 2 0
BITMAP
E0
E0
E0
E0
E0
E0
E0
E0
E0
E0
E0
E0
E0
E0
E0
E0
E0
E0
E0
E0
E0
E0
E0
E0
ENDCHAR
STARTCHAR 007D
ENCODING 125
SWIDTH 437 0
DWIDTH 14 0
BBX 9 31 2 -4
BITMAP
F000
F800
FC00
0E00
0E00
0E00
0E00
0E00
0E00
0E00
0E00
0E00
0600
0300
0380
0180
0380
0300
0600
0E00
0E00
0E00
0E00
0E00
0E00
0E00
0E00
0E00
FC00
F800
F000
ENDCHAR
STARTCHAR 007E
ENCODING 126
SWIDTH 750 0
DWIDTH 24 0
BBX 20 7 2 8
BITMAP
1F8010
1FC030
3DE070
78F0F0
F07BE0
E03FC0
C01F80
ENDCHAR
STARTCHAR 00A0
ENCODING 160
SWIDTH 312 0
DWIDTH 10 0
BBX 0 0 0 0
BITMAP
ENDCHAR
STARTCHAR 00A1
ENCODING 161
SWIDTH 250 0
DWIDTH 8 0
BBX 3 23 2 -4
BITMAP
E0
E0
E0
00
00
00
00
E0
E0
E0
E0
E0
E0
E0
E0
E0
E0
E0
E0
E0
E0
E0
E0
ENDCHAR
STARTCHAR 00A2
ENCODING 162
SWIDTH 875 0
DWIDTH 28 0
BBX 23 25 2 -1
BITMAP
003800
003800
003800
1FFFF0
3FFFF8
7FFFFC
E0000E
E0000E
E0000E
E00000
E00000
E00000
E00000
E00000
E00000
E00000
E0000E
E0000E
7FFFFE
3FFFFC
1FFFF0
003800
003800
003800
003800
ENDCHAR
STARTCHAR 00A3
ENCODING 163
SWIDTH 843 0
DWIDTH 27 0
BBX 22 23 2 0
BITMAP
01FFE0
03FFE0
07FFE0
0E0000
0E0000
0E0000
0E0000
0E0000
0E0000
0E0000
FFFE00
FFFE00
FFFE00
0E0000
0E0000
0E0000
0E0000
0E0000
0E0000
0E0000
FFFFFC
FFFFFC
FFFFFC
ENDCHAR
STARTCHAR 00A4
ENCODING 164
SWIDTH 1000 0
DWIDTH 32 0
BBX 27 23 2 0
BITMAP
07FFFF00
0FFFFF80
1FFFFFC0
380000E0
380000E0
380000E0
380000E0
FFF80000
FFF80000
FFF80000
38000000
38000000
38000000
FFF80000
FFF80000
FFF80000
380000E0
380000E0
380000E0
380000E0
1FFFFFC0
0FFFFF80
03FFFF00
ENDCHAR
STARTCHAR 00A5
ENCODING 165
SWIDTH 875 0
DWIDTH 28 0
BBX 24 23 2 0
BITMAP
E00007
F0000F
78001E
3C003C
1E0078
0F00F0
0781E0
03C3C0
01E780
00FF00
007E00
003C00
003800
003800
3FFFFC
3FFFFC
3FFFFC
003800
003800
003800
003800
003800
003800
ENDCHAR
STARTCHAR 00A6
ENCODING 166
SWIDTH 250 0
DWIDTH 8 0
BBX 3 23 2 0
BITMAP
E0
E0
E0
E0
E0
E0
E0
E0
E0
00
00
00
00
00
E0
E0
E0
E0
E0
E0
E0
E0
E0
ENDCHAR
STARTCHAR 00A7
ENCODING 167
SWIDTH 906 0
DWIDTH 29 0
BBX 24 25 2 -1
BITMAP
1FFFF8
3FFFF8
7FFFF8
E00000
E00000
E00000
E00000
7FFFF8
3FFFFC
3FFFFE
600007
E00007
E00007
E00007
E00007
7FFFFE
3FFFFE
1FFFFF
000007
000007
000007
000007
0FFFFE
0FFFFC
0FFFF8
ENDCHAR
STARTCHAR 00A8
ENCODING 168
SWIDTH 812 0
DWIDTH 26 0
BBX 12 3 5 25
BITMAP
E070
E070
E070
ENDCHAR
STARTCHAR 00A9
ENCODING 169
SWIDTH 906 0
DWIDTH 29 0
BBX 24 23 2 0
BITMAP
1FFFF8
3FFFFC
7FFFFE
E00007
E00007
E00007
E03FE7
E07FE7
E0FFE7
E18007
E38007
E38007
E38007
E18007
E0FFE7
E07FE7
E03FE7
E00007
E00007
E00007
7FFFFE
3FFFFC
1FFFF8
ENDCHAR
STARTCHAR 00AA
ENCODING 170
SWIDTH 906 0
DWIDTH 29 0
BBX 24 18 2 5
BITMAP
1FFFE1
3FFFF3
7FFFFF
E00007
E00007
E00007
E00007
E00007
E00007
E00007
E00007
E00007
E00007
E00007
E00007
7FFFFF
3FFFF3
1FFFE1
ENDCHAR
STARTCHAR 00AB
ENCODING 171
SWIDTH 687 0
DWIDTH 22 0
BBX 17 15 2 4
BITMAP
01E000
03E000
07E180
0FC380
1F8780
3F0F00
7E1E00
FC3C00
7E1E00
3F0F00
1F8780
0FC380
07E180
03E000
01E000
ENDCHAR
STARTCHAR 00AC
ENCODING 172
SWIDTH 593 0
DWIDTH 19 0
BBX 14 7 2 6
BITMAP
FFFC
FFFC
FFFC
001C
001C
001C
001C
ENDCHAR
STARTCHAR 00AD
ENCODING 173
SWIDTH 468 0
DWIDTH 15 0
BBX 11 3 2 10
BITMAP
FFE0
FFE0
FFE0
ENDCHAR
STARTCHAR 00AE
ENCODING 174
SWIDTH 906 0
DWIDTH 29 0
BBX 24 23 2 0
BITMAP
1FFFF8
3FFFFC
7FFFFE
E00007
E00007
E00007
E3FF87
E3FFC7
E381C7
E381C7
E381C7
E3FFC7
E3FF87
E38F07
E38787
E383C7
E381C7
E00007
E00007
E00007
7FFFFE
3FFFFC
1FFFF8
ENDCHAR
STARTCHAR 00AF
ENCODING 175
SWIDTH 812 0
DWIDTH 26 0
BBX 11 3 4 24
BITMAP
FFE0
FFE0
FFE0
ENDCHAR
STARTCHAR 00B0
ENCODING 176
SWIDTH 468 0
DWIDTH 15 0
BBX 11 10 2 13
BITMAP
0F00
3F80
7FC0
E0E0
E0E0
E0E0
E0E0
7FC0
3F80
0F00
ENDCHAR
STARTCHAR 00B1
ENCODING 177
SWIDTH 562 0
DWIDTH 18 0
BBX 13 18 2 0
BITMAP
0700
0700
0700
0700
0700
FFF8
FFF8
FFF8
0700
0700
0700
0700
0700
0000
0000
FFF8
FFF8
FFF8
ENDCHAR
STARTCHAR 00B4
ENCODING 180
SWIDTH 843 0
DWIDTH 27 0
BBX 9 7 4 20
BITMAP
0380
0780
0F00
1E00
3C00
7800
F000
ENDCHAR
STARTCHAR 00B5
ENCODING 181
SWIDTH 906 0
DWIDTH 29 0
BBX 24 25 2 -7
BITMAP
E00007
E00007
E00007
E00007
E00007
E00007
E00007
E00007
E00007
E00007
E00007
E00007
E00007
E00007
E00007
FFFFFF
E7FFF3
E3FFE1
E00000
E00000
E00000
E00000
E00000
E00000
E00000
ENDCHAR
STARTCHAR 00B6
ENCODING 182
SWIDTH 718 0
DWIDTH 23 0
BBX 18 23 2 0
BITMAP
1FFFC0
3FFFC0
7FFFC0
E0E1C0
E0E1C0
E0E1C0
7FFFC0
1FFFC0
0FFFC0
00E1C0
00E1C0
00E1C0
00E1C0
00E1C0
00E1C0
00E1C0
00E1C0
00E1C0
00E1C0
00E1C0
00E1C0
00E1C0
00E1C0
ENDCHAR
STARTCHAR 00B7
ENCODING 183
SWIDTH 250 0
DWIDTH 8 0
BBX 3 3 2 10
BITMAP
E0
E0
E0
ENDCHAR
STARTCHAR 00B8
ENCODING 184
SWIDTH 968 0
DWIDTH 31 0
BBX 9 8 5 -9
BITMAP
0700
0780
0780
0380
0180
C380
FF00
7E00
ENDCHAR
STARTCHAR 00BA
ENCODING 186
SWIDTH 906 0
DWIDTH 29 0
BBX 24 18 2 5
BITMAP
1FFFF8
3FFFFC
7FFFFE
E00007
E00007
E00007
E00007
E00007
E00007
E00007
E00007
E00007
E00007
E00007
E00007
7FFFFE
3FFFFC
1FFFF8
ENDCHAR
STARTCHAR 00BB
ENCODING 187
SWIDTH 687 0
DWIDTH 22 0
BBX 17 15 2 4
BITMAP
01C000
01F000
E1F800
F0FC00
787E00
3C3F00
1E1F80
0E0F80
1E1F80
3C3F00
787E00
F0FC00
E1F800
01F000
01C000
ENDCHAR
STARTCHAR 00BF
ENCODING 191
SWIDTH 687 0
DWIDTH 22 0
BBX 17 23 2 -4
BITMAP
003800
003800
003800
000000
000000
000000
000000
003800
003800
003800
1FF000
3FE000
7FC000
E00000
E00000
E00000
E00000
E00000
E00000
E00000
7FFF80
3FFF80
1FFF80
ENDCHAR
STARTCHAR 00C0
ENCODING 192
SWIDTH 906 0
DWIDTH 29 0
BBX 24 32 2 0
BITMAP
01E000
00F000
007800
003C00
001E00
000F00
000780
000000
000000
001C00
003E00
007F00
00FF80
01E7C0
07C3E0
0F81F0
1F00F8
3E007C
7C003E
F8001F
F0000F
E00007
E00007
FFFFFF
FFFFFF
FFFFFF
E00007
E00007
E00007
E00007
E00007
E00007
ENDCHAR
STARTCHAR 00C1
ENCODING 193
SWIDTH 906 0
DWIDTH 29 0
BBX 24 32 2 0
BITMAP
000078
0000F0
0001E0
0003C0
000780
000F00
001E00
000000
000000
001C00
003E00
007F00
00FF80
01E7C0
07C3E0
0F81F0
1F00F8
3E007C
7C003E
F8001F
F0000F
E00007
E00007
FFFFFF
FFFFFF
FFFFFF
E00007
E00007
E00007
E00007
E00007
E00007
ENDCHAR
STARTCHAR 00C2
ENCODING 194
SWIDTH 906 0
DWIDTH 29 0
BBX 24 31 2 0
BITMAP
001C00
003E00
007F00
00F780
00F380
00E380
000000
000000
001C00
003E00
007F00
00FF80
01E7C0
07C3E0
0F81F0
1F00F8
3E007C
7C003E
F8001F
F0000F
E00007
E00007
FFFFFF
FFFFFF
FFFFFF
E00007
E00007
E00007
E00007
E00007
E00007
ENDCHAR
STARTCHAR 00C3
ENCODING 195
SWIDTH 906 0
DWIDTH 29 0
BBX 24 32 2 0
BITMAP
01F008
03F818
07F838
0F3C78
0E1EF0
0C0FE0
0807C0
000000
000000
001C00
003E00
007F00
00FF80
01E7C0
07C3E0
0F81F0
1F00F8
3E007C
7C003E
F8001F
F0000F
E00007
E00007
FFFFFF
FFFFFF
FFFFFF
E00007
E00007
E00007
E00007
E00007
E00007
ENDCHAR
STARTCHAR 00C4
ENCODING 196
SWIDTH 906 0
DWIDTH 29 0
BBX 24 28 2 0
BITMAP
00E070
00E070
00E070
000000
000000
001C00
003E00
007F00
00FF80
01E7C0
07C3E0
0F81F0
1F00F8
3E007C
7C003E
F8001F
F0000F
E00007
E00007
FFFFFF
FFFFFF
FFFFFF
E00007
E00007
E00007
E00007
E00007
E00007
ENDCHAR
STARTCHAR 00C5
ENCODING 197
SWIDTH 906 0
DWIDTH 29 0
BBX 24 35 2 0
BITMAP
001F80
003FC0
007DE0
0078F0
00F070
00E070
00E070
00F0F0
007DE0
003FC0
001F80
000000
001C00
003E00
007F00
00FF80
01E7C0
07C3E0
0F81F0
1F00F8
3E007C
7C003E
F8001F
F0000F
E00007
E00007
FFFFFF
FFFFFF
FFFFFF
E00007
E00007
E00007
E00007
E00007
E00007
ENDCHAR
STARTCHAR 00C6
ENCODING 198
SWIDTH 1156 0
DWIDTH 37 0
BBX 33 23 2 0
BITMAP
000FFFFF80
001FFFFF80
003FFFFF80
0079C00000
00F1C00000
01E1C00000
03C1C00000
0781C00000
0F01C00000
1E01C00000
3C01FFFF80
7801FFFF80
F001FFFF80
E001C00000
FFFFC00000
FFFFC00000
FFFFC00000
E001C00000
E001C00000
E001C00000
E001FFFF80
E001FFFF80
E001FFFF80
ENDCHAR
STARTCHAR 00C7
ENCODING 199
SWIDTH 906 0
DWIDTH 29 0
BBX 24 32 2 -9
BITMAP
1FFFF8
3FFFFC
7FFFFE
E00007
E00007
E00007
E00007
E00000
E00000
E00000
E00000
E00000
E00000
E00000
E00000
E00000
E00007
E00007
E00007
E00007
7FFFFE
3FFFFC
1FFFFC
000600
000700
000700
000300
000100
000100
018300
01FF00
00FE00
ENDCHAR
STARTCHAR 00C8
ENCODING 200
SWIDTH 843 0
DWIDTH 27 0
BBX 22 32 2 0
BITMAP
00F000
007800
003C00
001E00
000F00
000780
0003C0
000000
000000
FFFFFC
FFFFFC
FFFFFC
E00000
E00000
E00000
E00000
E00000
E00000
E00000
FFFFFC
FFFFFC
FFFFFC
E00000
E00000
E00000
E00000
E00000
E00000
E00000
FFFFFC
FFFFFC
FFFFFC
ENDCHAR
STARTCHAR 00C9
ENCODING 201
SWIDTH 843 0
DWIDTH 27 0
BBX 22 32 2 0
BITMAP
000078
0000F0
0001E0
0003C0
000780
000F00
001E00
000000
000000
FFFFFC
FFFFFC
FFFFFC
E00000
E00000
E00000
E00000
E00000
E00000
E00000
FFFFFC
FFFFFC
FFFFFC
E00000
E00000
E00000
E00000
E00000
E00000
E00000
FFFFFC
FFFFFC
FFFFFC
ENDCHAR
STARTCHAR 00CA
ENCODING 202
SWIDTH 843 0
DWIDTH 27 0
BBX 22 31 2 0
BITMAP
003800
007C00
00FE00
01EF00
01E700
01C700
000000
000000
FFFFFC
FFFFFC
FFFFFC
E00000
E00000
E00000
E00000
E00000
E00000
E00000
FFFFFC
FFFFFC
FFFFFC
E00000
E00000
E00000
E00000
E00000
E00000
E00000
FFFFFC
FFFFFC
FFFFFC
ENDCHAR
STARTCHAR 00CB
ENCODING 203
SWIDTH 843 0
DWIDTH 27 0
BBX 22 28 2 0
BITMAP
01C0E0
01C0E0
01C0E0
000000
000000
FFFFFC
FFFFFC
FFFFFC
E00000
E00000
E00000
E00000
E00000
E00000
E00000
FFFFFC
FFFFFC
FFFFFC
E00000
E00000
E00000
E00000
E00000
E00000
E00000
FFFFFC
FFFFFC
FFFFFC
ENDCHAR
STARTCHAR 00CC
ENCODING 204
SWIDTH 562 0
DWIDTH 18 0
BBX 13 32 2 0
BITMAP
3C00
1E00
0F00
0780
03C0
01E0
00F0
0000
0000
FFF8
FFF8
FFF8
0700
0700
0700
0700
0700
0700
0700
0700
0700
0700
0700
0700
0700
0700
0700
0700
0700
FFF8
FFF8
FFF8
ENDCHAR
STARTCHAR 00CD
ENCODING 205
SWIDTH 562 0
DWIDTH 18 0
BBX 15 32 2 0
BITMAP
001E
003C
0078
00F0
01E0
03C0
0780
0000
0000
FFF8
FFF8
FFF8
0700
0700
0700
0700
0700
0700
0700
0700
0700
0700
0700
0700
0700
0700
0700
0700
0700
FFF8
FFF8
FFF8
ENDCHAR
STARTCHAR 00CE
ENCODING 206
SWIDTH 562 0
DWIDTH 18 0
BBX 13 31 2 0
BITMAP
01C0
03E0
07F0
0F78
0F38
0E38
0000
0000
FFF8
FFF8
FFF8
0700
0700
0700
0700
0700
0700
0700
0700
0700
0700
0700
0700
0700
0700
0700
0700
0700
FFF8
FFF8
FFF8
ENDCHAR
STARTCHAR 00CF
ENCODING 207
SWIDTH 562 0
DWIDTH 18 0
BBX 15 28 2 0
BITMAP
1C0E
1C0E
1C0E
0000
0000
FFF8
FFF8
FFF8
0700
0700
0700
0700
0700
0700
0700
0700
0700
0700
0700
0700
0700
0700
0700
0700
0700
FFF8
FFF8
FFF8
ENDCHAR
STARTCHAR 00D0
ENCODING 208
SWIDTH 1000 0
DWIDTH 32 0
BBX 27 23 2 0
BITMAP
3FFFFF00
3FFFFF80
3FFFFFC0
380000E0
380000E0
380000E0
380000E0
380000E0
380000E0
380000E0
FF8000E0
FF8000E0
FF8000E0
380000E0
380000E0
380000E0
380000E0
380000E0
380000E0
380000E0
3FFFFFC0
3FFFFF80
3FFFFF00
ENDCHAR
STARTCHAR 00D1
ENCODING 209
SWIDTH 937 0
DWIDTH 30 0
BBX 26 32 2 0
BITMAP
00F80400
01FC0C00
03FC1C00
079E3C00
070F7800
0607F000
0403E000
00000000
00000000
F00001C0
F80001C0
FC0001C0
FE0001C0
EF0001C0
E78001C0
E3C001C0
E1E001C0
E0F001C0
E07801C0
E03C01C0
E01E01C0
E00F01C0
E00781C0
E003C1C0
E001E1C0
E000F1C0
E00079C0
E0003DC0
E0001FC0
E0000FC0
E00007C0
E00003C0
ENDCHAR
STARTCHAR 00D2
ENCODING 210
SWIDTH 906 0
DWIDTH 29 0
BBX 24 32 2 0
BITMAP
01E000
00F000
007800
003C00
001E00
000F00
000780
000000
000000
1FFFF8
3FFFFC
7FFFFE
E00007
E00007
E00007
E00007
E00007
E00007
E00007
E00007
E00007
E00007
E00007
E00007
E00007
E00007
E00007
E00007
E00007
7FFFFE
3FFFFC
1FFFF8
ENDCHAR
STARTCHAR 00D3
ENCODING 211
SWIDTH 906 0
DWIDTH 29 0
BBX 24 32 2 0
BITMAP
000078
0000F0
0001E0
0003C0
000780
000F00
001E00
000000
000000
1FFFF8
3FFFFC
7FFFFE
E00007
E00007
E00007
E00007
E00007
E00007
E00007
E00007
E00007
E00007
E00007
E00007
E00007
E00007
E00007
E00007
E00007
7FFFFE
3FFFFC
1FFFF8
ENDCHAR
STARTCHAR 00D4
ENCODING 212
SWIDTH 906 0
DWIDTH 29 0
BBX 24 31 2 0
BITMAP
001C00
003E00
007F00
00F780
00F380
00E380
000000
000000
1FFFF8
3FFFFC
7FFFFE
E00007
E00007
E00007
E00007
E00007
E00007
E00007
E00007
E00007
E00007
E00007
E00007
E00007
E00007
E00007
E00007
E00007
7FFFFE
3FFFFC
1FFFF8
ENDCHAR
STARTCHAR 00D5
ENCODING 213
SWIDTH 906 0
DWIDTH 29 0
BBX 24 32 2 0
BITMAP
00F804
01FC0C
03FC1C
079E3C
070F78
0607F0
0403E0
000000
000000
1FFFF8
3FFFFC
7FFFFE
E00007
E00007
E00007
E00007
E00007
E00007
E00007
E00007
E00007
E00007
E00007
E00007
E00007
E00007
E00007
E00007
E00007
7FFFFE
3FFFFC
1FFFF8
ENDCHAR
STARTCHAR 00D6
ENCODING 214
SWIDTH 906 0
DWIDTH 29 0
BBX 24 28 2 0
BITMAP
00E070
00E070
00E070
000000
000000
1FFFF8
3FFFFC
7FFFFE
E00007
E00007
E00007
E00007
E00007
E00007
E00007
E00007
E00007
E00007
E00007
E00007
E00007
E00007
E00007
E00007
E00007
7FFFFE
3FFFFC
1FFFF8
ENDCHAR
STARTCHAR 00D7
ENCODING 215
SWIDTH 625 0
DWIDTH 20 0
BBX 16 15 2 4
BITMAP
F00F
F81F
7C3F
3E7E
1FFC
0FF8
07F0
07E0
0FF0
1FF8
3F7C
7E3F
FC1F
F80F
F007
ENDCHAR
STARTCHAR 00D8
ENCODING 216
SWIDTH 906 0
DWIDTH 29 0
BBX 24 23 2 0
BITMAP
1FFFF8
3FFFFC
7FFFFE
E0007F
E000FF
E001FF
E003F7
E007E7
E00FC7
E01F87
E03F07
E07E07
E0FC07
E0F807
E1F007
E3E007
E7C007
EF8007
FF0007
FE0007
7FFFFE
3FFFFC
1FFFF8
ENDCHAR
STARTCHAR 00D9
ENCODING 217
SWIDTH 906 0
DWIDTH 29 0
BBX 24 32 2 0
BITMAP
01E000
00F000
007800
003C00
001E00
000F00
000780
000000
000000
E00007
E00007
E00007
E00007
E00007
E00007
E00007
E00007
E00007
E00007
E00007
E00007
E00007
E00007
E00007
E00007
E00007
E00007
E00007
E00007
7FFFFE
3FFFFC
1FFFF8
ENDCHAR
STARTCHAR 00DA
ENCODING 218
SWIDTH 906 0
DWIDTH 29 0
BBX 24 32 2 0
BITMAP
000078
0000F0
0001E0
0003C0
000780
000F00
001E00
000000
000000
E00007
E00007
E00007
E00007
E00007
E00007
E00007
E00007
E00007
E00007
E00007
E00007
E00007
E00007
E00007
E00007
E00007
E00007
E00007
E00007
7FFFFE
3FFFFC
1FFFF8
ENDCHAR
STARTCHAR 00DB
ENCODING 219
SWIDTH 906 0
DWIDTH 29 0
BBX 24 31 2 0
BITMAP
001C00
003E00
007F00
00F780
00F380
00E380
000000
000000
E00007
E00007
E00007
E00007
E00007
E00007
E00007
E00007
E00007
E00007
E00007
E00007
E00007
E00007
E00007
E00007
E00007
E00007
E00007
E00007
7FFFFE
3FFFFC
1FFFF8
ENDCHAR
STARTCHAR 00DC
ENCODING 220
SWIDTH 906 0
DWIDTH 29 0
BBX 24 28 2 0
BITMAP
00E070
00E070
00E070
000000
000000
E00007
E00007
E00007
E00007
E00007
E00007
E00007
E00007
E00007
E00007
E00007
E00007
E00007
E00007
E00007
E00007
E00007
E00007
E00007
E00007
7FFFFE
3FFFFC
1FFFF8
ENDCHAR
STARTCHAR 00DD
ENCODING 221
SWIDTH 875 0
DWIDTH 28 0
BBX 23 33 2 0
BITMAP
0001E0
0003C0
000780
000F00
001E00
003C00
007800
000000
000000
000000
E0000E
E0000E
F0001E
F8003E
7C007C
3E00F8
1F01F0
0F83E0
07C7C0
03EF80
01FF00
00FE00
007C00
003800
003800
003800
003800
003800
003800
003800
003800
003800
003800
ENDCHAR
STARTCHAR 00DE
ENCODING 222
SWIDTH 906 0
DWIDTH 29 0
BBX 24 23 2 0
BITMAP
E00000
E00000
E00000
E00000
E00000
FFFFF8
FFFFFC
FFFFFE
E00007
E00007
E00007
E00007
E00007
E00007
E00007
E00007
FFFFFE
E7FFFC
E3FFF8
E00000
E00000
E00000
E00000
ENDCHAR
STARTCHAR 00DF
ENCODING 223
SWIDTH 906 0
DWIDTH 29 0
BBX 24 27 2 -4
BITMAP
1FFFF8
3FFFFC
7FFFFE
E00007
E00007
E00007
E00007
E00007
E0000F
E0001E
E0FFFC
E0FFFC
E0FFFC
E0001E
E0000F
E00007
E00007
E00007
E00007
E00007
E0FFFE
E0FFFC
E0FFF8
E00000
E00000
E00000
E00000
ENDCHAR
STARTCHAR 00E0
ENCODING 224
SWIDTH 906 0
DWIDTH 29 0
BBX 24 27 2 0
BITMAP
01E000
00F000
007800
003C00
001E00
000F00
000780
000000
000000
1FFFE1
3FFFF3
7FFFFF
E00007
E00007
E00007
E00007
E00007
E00007
E00007
E00007
E00007
E00007
E00007
E00007
7FFFFF
3FFFF3
1FFFE1
ENDCHAR
STARTCHAR 00E1
ENCODING 225
SWIDTH 906 0
DWIDTH 29 0
BBX 24 27 2 0
BITMAP
000078
0000F0
0001E0
0003C0
000780
000F00
001E00
000000
000000
1FFFE1
3FFFF3
7FFFFF
E00007
E00007
E00007
E00007
E00007
E00007
E00007
E00007
E00007
E00007
E00007
E00007
7FFFFF
3FFFF3
1FFFE1
ENDCHAR
STARTCHAR 00E2
ENCODING 226
SWIDTH 906 0
DWIDTH 29 0
BBX 24 26 2 0
BITMAP
003800
007C00
00FE00
01EF00
01E700
01C700
000000
000000
1FFFE1
3FFFF3
7FFFFF
E00007
E00007
E00007
E00007
E00007
E00007
E00007
E00007
E00007
E00007
E00007
E00007
7FFFFF
3FFFF3
1FFFE1
ENDCHAR
STARTCHAR 00E3
ENCODING 227
SWIDTH 906 0
DWIDTH 29 0
BBX 24 27 2 0
BITMAP
00F804
01FC0C
03FC1C
079E3C
070F78
0607F0
0403E0
000000
000000
1FFFE1
3FFFF3
7FFFFF
E00007
E00007
E00007
E00007
E00007
E00007
E00007
E00007
E00007
E00007
E00007
E00007
7FFFFF
3FFFF3
1FFFE1
ENDCHAR
STARTCHAR 00E4
ENCODING 228
SWIDTH 906 0
DWIDTH 29 0
BBX 24 23 2 0
BITMAP
01C0E0
01C0E0
01C0E0
000000
000000
1FFFE1
3FFFF3
7FFFFF
E00007
E00007
E00007
E00007
E00007
E00007
E00007
E00007
E00007
E00007
E00007
E00007
7FFFFF
3FFFF3
1FFFE1
ENDCHAR
STARTCHAR 00E5
ENCODING 229
SWIDTH 906 0
DWIDTH 29 0
BBX 24 31 2 0
BITMAP
001F80
003FC0
007DE0
0078F0
00F070
00E070
00E070
00F0F0
007DE0
003FC0
001F80
000000
000000
1FFFE1
3FFFF3
7FFFFF
E00007
E00007
E00007
E00007
E00007
E00007
E00007
E00007
E00007
E00007
E00007
E00007
7FFFFF
3FFFF3
1FFFE1
ENDCHAR
STARTCHAR 00E6
ENCODING 230
SWIDTH 1093 0
DWIDTH 35 0
BBX 31 18 2 0
BITMAP
1FFC7FF0
3FFEFFF8
7FFFFFFC
E003800E
E003800E
E003800E
E003800E
E003800E
E003FFFE
E003FFFE
E003FFFE
E0038000
E0038000
E0038000
E0038000
7FFFFFFE
3FFFFFFE
1FFFFFFE
ENDCHAR
STARTCHAR 00E7
ENCODING 231
SWIDTH 843 0
DWIDTH 27 0
BBX 22 27 2 -9
BITMAP
1FFFFC
3FFFFC
7FFFFC
E00000
E00000
E00000
E00000
E00000
E00000
E00000
E00000
E00000
E00000
E00000
E00000
7FFFFC
3FFFFC
1FFFFC
000600
000700
000700
000300
000100
000100
018300
01FF00
00FE00
ENDCHAR
STARTCHAR 00E8
ENCODING 232
SWIDTH 875 0
DWIDTH 28 0
BBX 23 27 2 0
BITMAP
01E000
00F000
007800
003C00
001E00
000F00
000780
000000
000000
1FFFF0
3FFFF8
7FFFFC
E0000E
E0000E
E0000E
E0000E
E0000E
FFFFFE
FFFFFE
FFFFFE
E00000
E00000
E00000
E00000
7FFFFE
3FFFFE
1FFFFE
ENDCHAR
STARTCHAR 00E9
ENCODING 233
SWIDTH 875 0
DWIDTH 28 0
BBX 23 27 2 0
BITMAP
000078
0000F0
0001E0
0003C0
000780
000F00
001E00
000000
000000
1FFFF0
3FFFF8
7FFFFC
E0000E
E0000E
E0000E
E0000E
E0000E
FFFFFE
FFFFFE
FFFFFE
E00000
E00000
E00000
E00000
7FFFFE
3FFFFE
1FFFFE
ENDCHAR
STARTCHAR 00EA
ENCODING 234
SWIDTH 875 0
DWIDTH 28 0
BBX 23 26 2 0
BITMAP
001C00
003E00
007F00
00F780
00F380
00E380
000000
000000
1FFFF0
3FFFF8
7FFFFC
E0000E
E0000E
E0000E
E0000E
E0000E
FFFFFE
FFFFFE
FFFFFE
E00000
E00000
E00000
E00000
7FFFFE
3FFFFE
1FFFFE
ENDCHAR
STARTCHAR 00EB
ENCODING 235
SWIDTH 875 0
DWIDTH 28 0
BBX 23 23 2 0
BITMAP
00E070
00E070
00E070
000000
000000
1FFFF0
3FFFF8
7FFFFC
E0000E
E0000E
E0000E
E0000E
E0000E
FFFFFE
FFFFFE
FFFFFE
E00000
E00000
E00000
E00000
7FFFFE
3FFFFE
1FFFFE
ENDCHAR
STARTCHAR 00EC
ENCODING 236
SWIDTH 437 0
DWIDTH 14 0
BBX 10 27 4 0
BITMAP
F000
7800
3C00
1E00
0F00
0780
03C0
0000
0000
E000
E000
E000
E000
E000
E000
E000
E000
E000
E000
E000
E000
E000
E000
E000
7E00
3E00
1E00
ENDCHAR
STARTCHAR 00ED
ENCODING 237
SWIDTH 468 0
DWIDTH 15 0
BBX 12 27 2 0
BITMAP
00F0
01E0
03C0
0780
0F00
1E00
3C00
0000
0000
E000
E000
E000
E000
E000
E000
E000
E000
E000
E000
E000
E000
E000
E000
E000
7E00
3E00
1E00
ENDCHAR
STARTCHAR 00EE
ENCODING 238
SWIDTH 437 0
DWIDTH 14 0
BBX 9 26 3 0
BITMAP
1C00
3E00
7F00
F780
F380
E380
0000
0000
7000
7000
7000
7000
7000
7000
7000
7000
7000
7000
7000
7000
7000
7000
7000
3F00
1F00
0F00
ENDCHAR
STARTCHAR 00EF
ENCODING 239
SWIDTH 531 0
DWIDTH 17 0
BBX 12 23 3 0
BITMAP
E070
E070
E070
0000
0000
3800
3800
3800
3800
3800
3800
3800
3800
3800
3800
3800
3800
3800
3800
3800
1F80
0F80
0780
ENDCHAR
STARTCHAR 00F0
ENCODING 240
SWIDTH 906 0
DWIDTH 29 0
BBX 24 23 2 0
BITMAP
003C00
001E00
000F00
000780
007FFF
007FFF
007FFF
0001F8
0000FC
00007E
1FFFFF
3FFFFF
7FFFFF
E00007
E00007
E00007
E00007
E00007
E00007
E00007
7FFFFE
3FFFFC
1FFFF8
ENDCHAR
STARTCHAR 00F1
ENCODING 241
SWIDTH 875 0
DWIDTH 28 0
BBX 24 27 2 0
BITMAP
003E01
007F03
00FF07
01E78F
01C3DE
0181FC
0100F8
000000
000000
87FFF0
CFFFF8
FFFFFC
E0000E
E0000E
E0000E
E0000E
E0000E
E0000E
E0000E
E0000E
E0000E
E0000E
E0000E
E0000E
E0000E
E0000E
E0000E
ENDCHAR
STARTCHAR 00F2
ENCODING 242
SWIDTH 906 0
DWIDTH 29 0
BBX 24 27 2 0
BITMAP
01E000
00F000
007800
003C00
001E00
000F00
000780
000000
000000
1FFFF8
3FFFFC
7FFFFE
E00007
E00007
E00007
E00007
E00007
E00007
E00007
E00007
E00007
E00007
E00007
E00007
7FFFFE
3FFFFC
1FFFF8
ENDCHAR
STARTCHAR 00F3
ENCODING 243
SWIDTH 906 0
DWIDTH 29 0
BBX 24 27 2 0
BITMAP
000078
0000F0
0001E0
0003C0
000780
000F00
001E00
000000
000000
1FFFF8
3FFFFC
7FFFFE
E00007
E00007
E00007
E00007
E00007
E00007
E00007
E00007
E00007
E00007
E00007
E00007
7FFFFE
3FFFFC
1FFFF8
ENDCHAR
STARTCHAR 00F4
ENCODING 244
SWIDTH 906 0
DWIDTH 29 0
BBX 24 26 2 0
BITMAP
001C00
003E00
007F00
00F780
00F380
00E380
000000
000000
1FFFF8
3FFFFC
7FFFFE
E00007
E00007
E00007
E00007
E00007
E00007
E00007
E00007
E00007
E00007
E00007
E00007
7FFFFE
3FFFFC
1FFFF8
ENDCHAR
STARTCHAR 00F5
ENCODING 245
SWIDTH 906 0
DWIDTH 29 0
BBX 24 27 2 0
BITMAP
00F804
01FC0C
03FC1C
079E3C
070F78
0607F0
0403E0
000000
000000
1FFFF8
3FFFFC
7FFFFE
E00007
E00007
E00007
E00007
E00007
E00007
E00007
E00007
E00007
E00007
E00007
E00007
7FFFFE
3FFFFC
1FFFF8
ENDCHAR
STARTCHAR 00F6
ENCODING 246
SWIDTH 906 0
DWIDTH 29 0
BBX 24 23 2 0
BITMAP
00E070
00E070
00E070
000000
000000
1FFFF8
3FFFFC
7FFFFE
E00007
E00007
E00007
E00007
E00007
E00007
E00007
E00007
E00007
E00007
E00007
E00007
7FFFFE
3FFFFC
1FFFF8
ENDCHAR
STARTCHAR 00F7
ENCODING 247
SWIDTH 468 0
DWIDTH 15 0
BBX 11 18 2 3
BITMAP
0E00
0E00
0E00
0000
0000
0000
0000
0000
FFE0
FFE0
FFE0
0000
0000
0000
0000
0E00
0E00
0E00
ENDCHAR
STARTCHAR 00F8
ENCODING 248
SWIDTH 875 0
DWIDTH 28 0
BBX 23 18 2 0
BITMAP
1FFFF0
3FFFF8
7FFFFC
E001EE
E003CE
E0078E
E00F0E
E01F0E
E03E0E
E07C0E
E0F80E
E1F00E
E3E00E
E7C00E
EF800E
7FFFFC
3FFFF8
1FFFF0
ENDCHAR
STARTCHAR 00F9
ENCODING 249
SWIDTH 875 0
DWIDTH 28 0
BBX 23 27 2 0
BITMAP
01E000
00F000
007800
003C00
001E00
000F00
000780
000000
000000
E0000E
E0000E
E0000E
E0000E
E0000E
E0000E
E0000E
E0000E
E0000E
E0000E
E0000E
E0000E
E0000E
E0000E
E0000E
7FFFFE
3FFFC6
1FFF82
ENDCHAR
STARTCHAR 00FA
ENCODING 250
SWIDTH 875 0
DWIDTH 28 0
BBX 23 27 2 0
BITMAP
000078
0000F0
0001E0
0003C0
000780
000F00
001E00
000000
000000
E0000E
E0000E
E0000E
E0000E
E0000E
E0000E
E0000E
E0000E
E0000E
E0000E
E0000E
E0000E
E0000E
E0000E
E0000E
7FFFFE
3FFFC6
1FFF82
ENDCHAR
STARTCHAR 00FB
ENCODING 251
SWIDTH 875 0
DWIDTH 28 0
BBX 23 26 2 0
BITMAP
001C00
003E00
007F00
00F780
00F380
00E380
000000
000000
E0000E
E0000E
E0000E
E0000E
E0000E
E0000E
E0000E
E0000E
E0000E
E0000E
E0000E
E0000E
E0000E
E0000E
E0000E
7FFFFE
3FFFC6
1FFF82
ENDCHAR
STARTCHAR 00FC
ENCODING 252
SWIDTH 875 0
DWIDTH 28 0
BBX 23 23 2 0
BITMAP
00E070
00E070
00E070
000000
000000
E0000E
E0000E
E0000E
E0000E
E0000E
E0000E
E0000E
E0000E
E0000E
E0000E
E0000E
E0000E
E0000E
E0000E
E0000E
7FFFFE
3FFFC6
1FFF82
ENDCHAR
STARTCHAR 00FD
ENCODING 253
SWIDTH 875 0
DWIDTH 28 0
BBX 23 34 2 -7
BITMAP
000078
0000F0
0001E0
0003C0
000780
000F00
001E00
000000
000000
E0000E
E0000E
E0000E
E0000E
E0000E
E0000E
E0000E
E0000E
E0000E
E0000E
E0000E
E0000E
E0000E
E0000E
E0000E
7FFFFE
3FFFEE
1FFFCE
00000E
00000E
00000E
00000E
0FFFFC
0FFFF8
0FFFF0
ENDCHAR
STARTCHAR 00FE
ENCODING 254
SWIDTH 906 0
DWIDTH 29 0
BBX 24 30 2 -7
BITMAP
E00000
E00000
E00000
E00000
E00000
E3FFF8
E7FFFC
EFFFFE
F00007
E00007
E00007
E00007
E00007
E00007
E00007
E00007
E00007
E00007
E00007
E00007
FFFFFE
E7FFFC
E3FFF8
E00000
E00000
E00000
E00000
E00000
E00000
E00000
ENDCHAR
STARTCHAR 00FF
ENCODING 255
SWIDTH 875 0
DWIDTH 28 0
BBX 23 30 2 -7
BITMAP
00E070
00E070
00E070
000000
000000
E0000E
E0000E
E0000E
E0000E
E0000E
E0000E
E0000E
E0000E
E0000E
E0000E
E0000E
E0000E
E0000E
E0000E
E0000E
7FFFFE
3FFFEE
1FFFCE
00000E
00000E
00000E
00000E
0FFFFC
0FFFF8
0FFFF0
ENDCHAR
STARTCHAR 0131
ENCODING 305
SWIDTH 375 0
DWIDTH 12 0
BBX 7 18 2 0
BITMAP
E0
E0
E0
E0
E0
E0
E0
E0
E0
E0
E0
E0
E0
E0
E0
7E
3E
1E
ENDCHAR
STARTCHAR 0141
ENCODING 321
SWIDTH 906 0
DWIDTH 29 0
BBX 25 24 2 0
BITMAP
38000000
38000000
38000000
38000000
38000000
38000000
38000000
38000000
38000000
38000000
38000000
FF800000
FF800000
FF800000
38000000
38000000
38000000
38000000
38000000
38000000
38000000
3FFFFF80
3FFFFF80
3FFFFF80
ENDCHAR
STARTCHAR 0142
ENCODING 322
SWIDTH 437 0
DWIDTH 14 0
BBX 9 23 2 0
BITMAP
3800
3800
3800
3800
3800
3800
3800
3800
3800
3800
FF80
FF80
FF80
3800
3800
3800
3800
3800
3800
3800
1F80
0780
0380
ENDCHAR
STARTCHAR 0152
ENCODING 338
SWIDTH 1093 0
DWIDTH 35 0
BBX 31 23 2 0
BITMAP
1FFFFFFE
3FFFFFFE
7FFFFFFE
E0038000
E0038000
E0038000
E0038000
E0038000
E0038000
E0038000
E003FFFE
E003FFFE
E003FFFE
E0038000
E0038000
E0038000
E0038000
E0038000
E0038000
E0038000
7FFFFFFE
3FFFFFFE
1FFFFFFE
ENDCHAR
STARTCHAR 0153
ENCODING 339
SWIDTH 1093 0
DWIDTH 35 0
BBX 31 18 2 0
BITMAP
1FFC7FF0
3FFEFFF8
7FFFFFFC
E003800E
E003800E
E003800E
E003800E
E003800E
E003FFFE
E003FFFE
E003FFFE
E0038000
E0038000
E0038000
E0038000
7FFFFFFE
3FFEFFFE
1FFC7FFE
ENDCHAR
STARTCHAR 0160
ENCODING 352
SWIDTH 906 0
DWIDTH 29 0
BBX 24 31 2 0
BITMAP
00C180
00E380
00F780
007F00
003E00
001C00
000000
000000
1FFFF8
3FFFFC
7FFFFE
E00007
E00007
E00007
E00007
E00000
E00000
E00000
7FFFF8
3FFFFC
1FFFFE
000007
000007
000007
E00007
E00007
E00007
E00007
7FFFFE
3FFFFC
1FFFF8
ENDCHAR
STARTCHAR 0161
ENCODING 353
SWIDTH 843 0
DWIDTH 27 0
BBX 22 26 2 0
BITMAP
00C180
00E380
00F780
007F00
003E00
001C00
000000
000000
1FFFFC
3FFFFC
7FFFFC
E00000
E00000
E00000
E00000
E00000
7FFFE0
3FFFF0
1FFFF8
00001C
00001C
00001C
00001C
FFFFF8
FFFFF0
FFFFE0
ENDCHAR
STARTCHAR 0178
ENCODING 376
SWIDTH 875 0
DWIDTH 28 0
BBX 23 29 2 0
BITMAP
00E070
00E070
00E070
000000
000000
000000
E0000E
E0000E
F0001E
F8003E
7C007C
3E00F8
1F01F0
0F83E0
07C7C0
03EF80
01FF00
00FE00
007C00
003800
003800
003800
003800
003800
003800
003800
003800
003800
003800
ENDCHAR
STARTCHAR 017D
ENCODING 381
SWIDTH 781 0
DWIDTH 25 0
BBX 21 32 2 0
BITMAP
018300
01C700
01EF00
00FE00
007C00
003800
000000
000000
000000
FFFFF8
FFFFF8
FFFFF8
0000F0
0001E0
0003C0
000780
000F00
001E00
003C00
007800
00F000
01E000
03C000
078000
0F0000
1E0000
3C0000
780000
F00000
FFFFF8
FFFFF8
FFFFF8
ENDCHAR
STARTCHAR 017E
ENCODING 382
SWIDTH 843 0
DWIDTH 27 0
BBX 22 26 2 0
BITMAP
018300
01C700
01EF00
00FE00
007C00
003800
000000
000000
FFFFFC
FFFFFC
FFFFFC
00001C
00001C
00001C
00001C
00001C
1FFFF8
3FFFF0
7FFFE0
E00000
E00000
E00000
E00000
FFFFFC
FFFFFC
FFFFFC
ENDCHAR
STARTCHAR 0192
ENCODING 402
SWIDTH 718 0
DWIDTH 23 0
BBX 19 27 2 -4
BITMAP
001FE0
003FE0
007FE0
006000
00E000
00E000
00E000
00E000
00E000
0FFFE0
0FFFE0
0FFFE0
00E000
00E000
00E000
00E000
00E000
00E000
00E000
00E000
00E000
00E000
00E000
00E000
FFC000
FF8000
FF0000
ENDCHAR
STARTCHAR 02C6
ENCODING 710
SWIDTH 468 0
DWIDTH 15 0
BBX 9 6 3 20
BITMAP
1C00
3E00
7F00
F700
E780
C380
ENDCHAR
STARTCHAR 02C7
ENCODING 711
SWIDTH 437 0
DWIDTH 14 0
BBX 9 6 3 25
BITMAP
C380
E380
F780
7F00
3E00
1C00
ENDCHAR
STARTCHAR 02C9
ENCODING 713
SWIDTH 812 0
DWIDTH 26 0
BBX 11 3 4 24
BITMAP
FFE0
FFE0
FFE0
ENDCHAR
STARTCHAR 02D8
ENCODING 728
SWIDTH 625 0
DWIDTH 20 0
BBX 14 6 3 21
BITMAP
C00C
C00C
E01C
7FF8
3FF0
1FE0
ENDCHAR
STARTCHAR 02D9
ENCODING 729
SWIDTH 281 0
DWIDTH 9 0
BBX 3 3 3 25
BITMAP
E0
E0
E0
ENDCHAR
STARTCHAR 02DA
ENCODING 730
SWIDTH 968 0
DWIDTH 31 0
BBX 12 11 4 20
BITMAP
1F80
3FC0
79E0
F1E0
F0F0
E070
E070
F0F0
79E0
3FC0
1F80
ENDCHAR
STARTCHAR 02DB
ENCODING 731
SWIDTH 968 0
DWIDTH 31 0
BBX 9 7 9 -9
BITMAP
F000
F000
E000
E000
F180
7F80
3F00
ENDCHAR
STARTCHAR 02DC
ENCODING 732
SWIDTH 718 0
DWIDTH 23 0
BBX 17 7 3 19
BITMAP
1E0180
3F0380
7F8780
F3CF80
E1FF00
C0FE00
807C00
ENDCHAR
STARTCHAR 02DD
ENCODING 733
SWIDTH 843 0
DWIDTH 27 0
BBX 17 7 4 25
BITMAP
038780
078F00
0F1E00
1E3C00
3C7800
78F000
F1E000
ENDCHAR
STARTCHAR 0394
ENCODING 916
SWIDTH 906 0
DWIDTH 29 0
BBX 25 17 2 0
BITMAP
001C0000
003E0000
007F0000
00F78000
01E3C000
03C1E000
0780F000
0F007800
1E003C00
3C001E00
78000F00
F0000780
E0000380
C0000180
FFFFFF80
FFFFFF80
FFFFFF80
ENDCHAR
STARTCHAR 03A9
ENCODING 937
SWIDTH 906 0
DWIDTH 29 0
BBX 24 23 2 0
BITMAP
1FFFF8
3FFFFC
7FFFFE
E00007
E00007
E00007
E00007
E00007
E00007
E00007
E00007
E00007
F00007
78000F
3C001E
1E001E
0E003C
0E0038
0E0038
0E0038
FC001F
F8000F
F00007
ENDCHAR
STARTCHAR 03BC
ENCODING 956
SWIDTH 906 0
DWIDTH 29 0
BBX 24 25 2 -7
BITMAP
E00007
E00007
E00007
E00007
E00007
E00007
E00007
E00007
E00007
E00007
E00007
E00007
E00007
E00007
E00007
FFFFFF
E7FFF3
E3FFE1
E00000
E00000
E00000
E00000
E00000
E00000
E00000
ENDCHAR
STARTCHAR 03C0
ENCODING 960
SWIDTH 718 0
DWIDTH 23 0
BBX 19 18 2 0
BITMAP
FFFFE0
FFFFE0
FFFFE0
0E1C00
0E1C00
0E1C00
0E1C00
0E1C00
0E1C00
0E1C00
0E1C00
0E1C00
0E1C00
0E1C00
0E1C00
0E1C00
0E1C00
0E1C00
ENDCHAR
STARTCHAR 2010
ENCODING 8208
SWIDTH 468 0
DWIDTH 15 0
BBX 11 3 2 10
BITMAP
FFE0
FFE0
FFE0
ENDCHAR
STARTCHAR 2013
ENCODING 8211
SWIDTH 781 0
DWIDTH 25 0
BBX 21 3 2 10
BITMAP
FFFFF8
FFFFF8
FFFFF8
ENDCHAR
STARTCHAR 2014
ENCODING 8212
SWIDTH 937 0
DWIDTH 30 0
BBX 26 3 2 10
BITMAP
FFFFFFC0
FFFFFFC0
FFFFFFC0
ENDCHAR
STARTCHAR 2018
ENCODING 8216
SWIDTH 250 0
DWIDTH 8 0
BBX 3 5 2 18
BITMAP
E0
E0
E0
80
40
ENDCHAR
STARTCHAR 2019
ENCODING 8217
SWIDTH 250 0
DWIDTH 8 0
BBX 3 5 2 18
BITMAP
E0
E0
60
20
60
ENDCHAR
STARTCHAR 201A
ENCODING 8218
SWIDTH 250 0
DWIDTH 8 0
BBX 3 6 2 -3
BITMAP
E0
E0
60
20
20
20
ENDCHAR
STARTCHAR 201C
ENCODING 8220
SWIDTH 437 0
DWIDTH 14 0
BBX 9 5 2 17
BITMAP
E380
E380
E380
C300
4100
ENDCHAR
STARTCHAR 201D
ENCODING 8221
SWIDTH 437 0
DWIDTH 14 0
BBX 9 5 2 17
BITMAP
E380
E380
6180
2080
2080
ENDCHAR
STARTCHAR 201E
ENCODING 8222
SWIDTH 437 0
DWIDTH 14 0
BBX 9 6 2 -3
BITMAP
E380
E380
6180
2080
2080
0080
ENDCHAR
STARTCHAR 2020
ENCODING 8224
SWIDTH 625 0
DWIDTH 20 0
BBX 15 22 2 0
BITMAP
0380
0380
0380
0380
0380
0380
FFFE
FFFE
FFFE
0380
0380
0380
0380
0380
0380
0380
0380
0380
0380
0380
0380
0380
ENDCHAR
STARTCHAR 2021
ENCODING 8225
SWIDTH 625 0
DWIDTH 20 0
BBX 15 19 2 0
BITMAP
0380
0380
0380
FFFE
FFFE
FFFE
0380
0380
0380
0380
0380
FFFE
FFFE
FFFE
0380
0380
0380
0380
0380
ENDCHAR
STARTCHAR 2022
ENCODING 8226
SWIDTH 468 0
DWIDTH 15 0
BBX 11 11 2 6
BITMAP
1F00
3F80
3FC0
7FE0
FFE0
FFE0
FFE0
7FE0
3FC0
1F80
1F00
ENDCHAR
STARTCHAR 2026
ENCODING 8230
SWIDTH 718 0
DWIDTH 23 0
BBX 18 3 2 0
BITMAP
E0E1C0
E0E1C0
E0E1C0
ENDCHAR
STARTCHAR 2030
ENCODING 8240
SWIDTH 1250 0
DWIDTH 40 0
BBX 36 23 2 0
BITMAP
1F001C0000
3F801C0000
79C01C0000
70E03C0000
E060780000
C060F00000
E061E00000
70E3C00000
39C7800000
3F8F000000
1F1E000000
003C000000
0078F00F80
00F1F81FC0
01E39C1CE0
03C30E3870
0787067030
0F06066030
1E07067030
3C03063870
78038C1CE0
7001F80FC0
7000F00780
ENDCHAR
STARTCHAR 2039
ENCODING 8249
SWIDTH 375 0
DWIDTH 12 0
BBX 7 11 2 6
BITMAP
06
0E
1E
3C
78
F0
78
3C
1E
0E
06
ENDCHAR
STARTCHAR 203A
ENCODING 8250
SWIDTH 375 0
DWIDTH 12 0
BBX 7 11 2 6
BITMAP
E0
F0
78
3C
1E
0E
1E
3C
78
F0
E0
ENDCHAR
STARTCHAR 2044
ENCODING 8260
SWIDTH 750 0
DWIDTH 24 0
BBX 19 24 2 0
BITMAP
0000E0
0000E0
0000E0
0000E0
0001E0
0003C0
000780
000F00
001E00
003C00
007800
00F000
01E000
03C000
078000
0F0000
1E0000
3C0000
780000
F00000
E00000
E00000
E00000
E00000
ENDCHAR
STARTCHAR 2122
ENCODING 8482
SWIDTH 1250 0
DWIDTH 40 0
BBX 36 16 2 7
BITMAP
FFFE3C0070
FFFE3E01F0
FFFE3F03F0
03803F87F0
03803BCFF0
038039CE70
038038FC70
0380387870
0380383070
0380380070
0380380070
0380380070
0380380070
0380380070
0380380070
0380380070
ENDCHAR
STARTCHAR 2126
ENCODING 8486
SWIDTH 906 0
DWIDTH 29 0
BBX 24 23 2 0
BITMAP
1FFFF8
3FFFFC
7FFFFE
E00007
E00007
E00007
E00007
E00007
E00007
E00007
E00007
E00007
F00007
78000F
3C001E
1E001E
0E003C
0E0038
0E0038
0E0038
FC001F
F8000F
F00007
ENDCHAR
STARTCHAR 2202
ENCODING 8706
SWIDTH 906 0
DWIDTH 29 0
BBX 24 23 2 0
BITMAP
007C00
003E00
001F00
000F80
0007C0
0007E0
0003F0
0001F8
0000FC
00007E
1FFFFF
3FFFFF
7FFFFF
E00007
E00007
E00007
E00007
E00007
E00007
E00007
7FFFFE
3FFFFC
1FFFF8
ENDCHAR
STARTCHAR 2206
ENCODING 8710
SWIDTH 906 0
DWIDTH 29 0
BBX 25 17 2 0
BITMAP
001C0000
003E0000
007F0000
00F78000
01E3C000
03C1E000
0780F000
0F007800
1E003C00
3C001E00
78000F00
F0000780
E0000380
C0000180
FFFFFF80
FFFFFF80
FFFFFF80
ENDCHAR
STARTCHAR 220F
ENCODING 8719
SWIDTH 718 0
DWIDTH 23 0
BBX 19 23 2 0
BITMAP
FFFFE0
FFFFE0
FFFFE0
0E1C00
0E1C00
0E1C00
0E1C00
0E1C00
0E1C00
0E1C00
0E1C00
0E1C00
0E1C00
0E1C00
0E1C00
0E1C00
0E1C00
0E1C00
0E1C00
0E1C00
0E1C00
0E1C00
0E1C00
ENDCHAR
STARTCHAR 2211
ENCODING 8721
SWIDTH 781 0
DWIDTH 25 0
BBX 21 23 2 0
BITMAP
1FFFF8
3FFFF8
7FFFF8
E00000
E00000
E00000
F00000
780000
3C0000
1E0000
0FFF00
07FF00
0FFF00
1E0000
3C0000
780000
F00000
E00000
E00000
E00000
7FFFF8
3FFFF8
1FFFF8
ENDCHAR
STARTCHAR 2212
ENCODING 8722
SWIDTH 468 0
DWIDTH 15 0
BBX 11 3 2 10
BITMAP
FFE0
FFE0
FFE0
ENDCHAR
STARTCHAR 2219
ENCODING 8729
SWIDTH 250 0
DWIDTH 8 0
BBX 3 3 2 10
BITMAP
E0
E0
E0
ENDCHAR
STARTCHAR 221A
ENCODING 8730
SWIDTH 781 0
DWIDTH 25 0
BBX 21 23 2 0
BITMAP
1FFFF8
3FFFF8
7FFFF8
E00000
E00000
E00000
F00000
780000
3C0000
1E0000
0FFFF8
07FFF8
0FFFF8
1E0000
3C0000
780000
F00000
E00000
E00000
E00000
7FFFF8
3FFFF8
1FFFF8
ENDCHAR
STARTCHAR 221E
ENCODING 8734
SWIDTH 875 0
DWIDTH 28 0
BBX 23 15 2 4
BITMAP
1FE7F0
3FFFF8
7FFFFC
E0380E
E0380E
E0380E
E0380E
E0380E
E0380E
E0380E
E0380E
E0380E
7FFFFC
3FFFF8
1FC7F0
ENDCHAR
STARTCHAR 222B
ENCODING 8747
SWIDTH 718 0
DWIDTH 23 0
BBX 19 27 2 -4
BITMAP
001FE0
003FE0
007FE0
00E000
00E000
00E000
00E000
00E000
00E000
00E000
00E000
00E000
00E000
00E000
00E000
00E000
00E000
00E000
00E000
00E000
00E000
00E000
00E000
00E000
FFC000
FF8000
FF0000
ENDCHAR
STARTCHAR 2248
ENCODING 8776
SWIDTH 750 0
DWIDTH 24 0
BBX 20 17 2 5
BITMAP
078070
0FC0F0
1FE1E0
3CF3C0
787F80
F03F00
E01E00
000000
000000
000000
078070
0FC0F0
1FE1E0
3CF3C0
787F80
F03F00
E01E00
ENDCHAR
STARTCHAR 2260
ENCODING 8800
SWIDTH 718 0
DWIDTH 23 0
BBX 17 15 3 4
BITMAP
000780
000F00
7FFF00
7FFF00
7FFF00
007800
00F000
01E000
03C000
078000
7FFF00
7FFF00
7FFF00
780000
F00000
ENDCHAR
STARTCHAR 2264
ENCODING 8804
SWIDTH 562 0
DWIDTH 18 0
BBX 13 17 2 0
BITMAP
01E0
03E0
07E0
0FC0
1F80
1F00
1F80
0FC0
07E0
03E0
01E0
0000
0000
0000
FFF8
FFF8
FFF8
ENDCHAR
STARTCHAR 2265
ENCODING 8805
SWIDTH 562 0
DWIDTH 18 0
BBX 13 17 2 0
BITMAP
1E00
1F00
1F80
0FC0
07E0
03E0
07E0
0FC0
1F80
1F00
1E00
0000
0000
0000
FFF8
FFF8
FFF8
ENDCHAR
STARTCHAR 22F2
ENCODING 8946
SWIDTH 750 0
DWIDTH 24 0
BBX 20 17 2 5
BITMAP
078070
0FC0F0
1FE1E0
3CF3C0
787F80
F03F00
E01E00
000000
000000
000000
078070
0FC0F0
1FE1E0
3CF3C0
787F80
F03F00
E01E00
ENDCHAR
STARTCHAR 25CA
ENCODING 9674
SWIDTH 718 0
DWIDTH 23 0
BBX 19 15 2 4
BITMAP
01F000
03F800
07FC00
0F1E00
1E0F00
3C0780
7803C0
F001E0
7803C0
3C0780
1E0F00
0F3E00
07FC00
03F800
01F000
ENDCHAR
STARTCHAR F000
ENCODING 61440
SWIDTH 625 0
DWIDTH 20 0
BBX 16 18 2 1
BITMAP
8000
4001
2002
3106
3A8C
799E
3E9C
39DC
29DC
1FF0
07E0
09D0
0340
02C0
0DA4
089C
0180
0080
ENDCHAR
STARTCHAR F001
ENCODING 61441
SWIDTH 1000 0
DWIDTH 32 0
BBX 27 23 2 0
BITMAP
01FFFE00
03FFFE00
07FFFE00
06000000
0E000000
0E000E00
0E000E00
0E000E00
0E000E00
FFFFEE00
FFFFEE00
FFFFEE00
0E000E00
0E000E00
0E000E00
0E000E00
0E000E00
0E000E00
0E000E00
0E000E00
0E0007E0
0E0003E0
0E0001E0
ENDCHAR
STARTCHAR F002
ENCODING 61442
SWIDTH 1000 0
DWIDTH 32 0
BBX 27 23 2 0
BITMAP
01FFFE00
03FFFE00
07FFFE00
06000E00
0E000E00
0E000E00
0E000E00
0E000E00
0E000E00
FFFFEE00
FFFFEE00
FFFFEE00
0E000E00
0E000E00
0E000E00
0E000E00
0E000E00
0E000E00
0E000E00
0E000E00
0E0007E0
0E0003E0
0E0001E0
ENDCHAR
ENDFONT
